999
dxfrw 0.6.3
  0
SECTION
  2
HEADER
  9
$ACADVER
  1
AC1021
  9
$DWGCODEPAGE
  3
ANSI_1252
  9
$INSBASE
 10
0
 20
0
 30
0
  9
$EXTMIN
 10
-63.12500000000005
 20
-56.25
 30
0
  9
$EXTMAX
 10
977
 20
1507.500000000001
 30
0
  9
$LIMMIN
 10
0
 20
0
  9
$LIMMAX
 10
420
 20
297
  9
$ORTHOMODE
 70
    0
  9
$REGENMODE
 70
    1
  9
$FILLMODE
 70
    1
  9
$QTEXTMODE
 70
    0
  9
$MIRRTEXT
 70
    0
  9
$LTSCALE
 40
1
  9
$ATTMODE
 70
    0
  9
$TEXTSIZE
 40
2.5
  9
$TRACEWID
 40
15.68
  9
$TEXTSTYLE
  7
STANDARD
  9
$CLAYER
  8
Masze
  9
$CELTYPE
  6
BYLAYER
  9
$CECOLOR
 62
  256
  9
$CELTSCALE
 40
1
  9
$DISPSILH
 70
    0
  9
$DIMSCALE
 40
2.5
  9
$DIMASZ
 40
2.5
  9
$DIMEXO
 40
0.625
  9
$DIMDLI
 40
3.75
  9
$DIMRND
 40
0
  9
$DIMDLE
 40
0
  9
$DIMEXE
 40
1.25
  9
$DIMTP
 40
0
  9
$DIMTM
 40
0
  9
$DIMTXT
 40
2.5
  9
$DIMCEN
 40
2.5
  9
$DIMTSZ
 40
0
  9
$DIMTOL
 70
    0
  9
$DIMLIM
 70
    0
  9
$DIMTIH
 70
    0
  9
$DIMTOH
 70
    0
  9
$DIMSE1
 70
    0
  9
$DIMSE2
 70
    0
  9
$DIMTAD
 70
    1
  9
$DIMZIN
 70
    8
  9
$DIMBLK
  1

  9
$DIMASO
 70
    1
  9
$DIMSHO
 70
    1
  9
$DIMPOST
  1

  9
$DIMAPOST
  1

  9
$DIMALT
 70
    0
  9
$DIMALTD
 70
    3
  9
$DIMALTF
 40
0.03937
  9
$DIMLFAC
 40
1
  9
$DIMTOFL
 70
    1
  9
$DIMTVP
 40
0
  9
$DIMTIX
 70
    0
  9
$DIMSOXD
 70
    0
  9
$DIMSAH
 70
    0
  9
$DIMBLK1
  1

  9
$DIMBLK2
  1

  9
$DIMSTYLE
  2
STANDARD
  9
$DIMCLRD
 70
    0
  9
$DIMCLRE
 70
    0
  9
$DIMCLRT
 70
    0
  9
$DIMTFAC
 40
1
  9
$DIMGAP
 40
0.625
  9
$DIMJUST
 70
    0
  9
$DIMSD1
 70
    0
  9
$DIMSD2
 70
    0
  9
$DIMTOLJ
 70
    0
  9
$DIMTZIN
 70
    8
  9
$DIMALTZ
 70
    0
  9
$DIMALTTZ
 70
    0
  9
$DIMUPT
 70
    0
  9
$DIMDEC
 70
    2
  9
$DIMTDEC
 70
    2
  9
$DIMALTU
 70
    2
  9
$DIMALTTD
 70
    3
  9
$DIMTXSTY
  7
STANDARD
  9
$DIMAUNIT
 70
    0
  9
$DIMADEC
 70
    0
  9
$DIMALTRND
 40
0
  9
$DIMAZIN
 70
    0
  9
$DIMDSEP
 70
   44
  9
$DIMATFIT
 70
    3
  9
$DIMFRAC
 70
    0
  9
$DIMLDRBLK
  1
STANDARD
  9
$DIMLUNIT
 70
    2
  9
$DIMLWD
 70
   -2
  9
$DIMLWE
 70
   -2
  9
$DIMTMOVE
 70
    0
  9
$DIMFXL
 40
1
  9
$DIMFXLON
 70
    0
  9
$DIMJOGANG
 40
0.7854
  9
$DIMTFILL
 70
    0
  9
$DIMTFILLCLR
 70
    0
  9
$DIMARCSYM
 70
    0
  9
$DIMLTYPE
  6

  9
$DIMLTEX1
  6

  9
$DIMLTEX2
  6

  9
$LUNITS
 70
    2
  9
$LUPREC
 70
    4
  9
$SKETCHINC
 40
1
  9
$FILLETRAD
 40
0
  9
$AUNITS
 70
    0
  9
$AUPREC
 70
    2
  9
$MENU
  1
.
  9
$ELEVATION
 40
0
  9
$PELEVATION
 40
0
  9
$THICKNESS
 40
0
  9
$LIMCHECK
 70
    0
  9
$CHAMFERA
 40
0
  9
$CHAMFERB
 40
0
  9
$CHAMFERC
 40
0
  9
$CHAMFERD
 40
0
  9
$SKPOLY
 70
    0
  9
$USRTIMER
 70
    1
  9
$ANGBASE
 50
0
  9
$ANGDIR
 70
    0
  9
$PDMODE
 70
   34
  9
$PDSIZE
 40
0
  9
$PLINEWID
 40
0
  9
$SPLFRAME
 70
    0
  9
$SPLINETYPE
 70
    2
  9
$SPLINESEGS
 70
    8
  9
$HANDSEED
  5
20000
  9
$SURFTAB1
 70
    6
  9
$SURFTAB2
 70
    6
  9
$SURFTYPE
 70
    6
  9
$SURFU
 70
    6
  9
$SURFV
 70
    6
  9
$UCSBASE
  2

  9
$UCSNAME
  2

  9
$UCSORG
 10
0
 20
0
 30
0
  9
$UCSXDIR
 10
1
 20
0
 30
0
  9
$UCSYDIR
 10
0
 20
1
 30
0
  9
$UCSORTHOREF
  2

  9
$UCSORTHOVIEW
 70
    0
  9
$UCSORGTOP
 10
0
 20
0
 30
0
  9
$UCSORGBOTTOM
 10
0
 20
0
 30
0
  9
$UCSORGLEFT
 10
0
 20
0
 30
0
  9
$UCSORGRIGHT
 10
0
 20
0
 30
0
  9
$UCSORGFRONT
 10
0
 20
0
 30
0
  9
$UCSORGBACK
 10
0
 20
0
 30
0
  9
$PUCSBASE
  2

  9
$PUCSNAME
  2

  9
$PUCSORG
 10
0
 20
0
 30
0
  9
$PUCSXDIR
 10
1
 20
0
 30
0
  9
$PUCSYDIR
 10
0
 20
1
 30
0
  9
$PUCSORTHOREF
  2

  9
$PUCSORTHOVIEW
 70
    0
  9
$PUCSORGTOP
 10
0
 20
0
 30
0
  9
$PUCSORGBOTTOM
 10
0
 20
0
 30
0
  9
$PUCSORGLEFT
 10
0
 20
0
 30
0
  9
$PUCSORGRIGHT
 10
0
 20
0
 30
0
  9
$PUCSORGFRONT
 10
0
 20
0
 30
0
  9
$PUCSORGBACK
 10
0
 20
0
 30
0
  9
$USERI1
 70
    0
  9
$USERI2
 70
    0
  9
$USERI3
 70
    0
  9
$USERI4
 70
    0
  9
$USERI5
 70
    0
  9
$USERR1
 40
0
  9
$USERR2
 40
0
  9
$USERR3
 40
0
  9
$USERR4
 40
0
  9
$USERR5
 40
0
  9
$WORLDVIEW
 70
    1
  9
$SHADEDGE
 70
    3
  9
$SHADEDIF
 70
   70
  9
$TILEMODE
 70
    1
  9
$MAXACTVP
 70
   64
  9
$PINSBASE
 10
0
 20
0
 30
0
  9
$PLIMCHECK
 70
    0
  9
$PEXTMIN
 10
0
 20
0
 30
0
  9
$PEXTMAX
 10
0
 20
0
 30
0
  9
$GRIDMODE
 70
    1
  9
$PLIMMIN
 10
0
 20
0
  9
$PLIMMAX
 10
297
 20
210
  9
$UNITMODE
 70
    0
  9
$VISRETAIN
 70
    1
  9
$PLINEGEN
 70
    0
  9
$PSLTSCALE
 70
    1
  9
$TREEDEPTH
 70
 3020
  9
$CMLSTYLE
  2
Standard
  9
$CMLJUST
 70
    0
  9
$CMLSCALE
 40
20
  9
$PROXYGRAPHICS
 70
    1
  9
$MEASUREMENT
 70
    1
  9
$CELWEIGHT
370
   -1
  9
$ENDCAPS
280
    0
  9
$JOINSTYLE
280
    0
  9
$LWDISPLAY
290
    0
  9
$INSUNITS
 70
    0
  9
$HYPERLINKBASE
  1

  9
$STYLESHEET
  1

  9
$XEDIT
290
    1
  9
$CEPSNTYPE
380
    0
  9
$PSTYLEMODE
290
    1
  9
$EXTNAMES
290
    1
  9
$PSVPSCALE
 40
0
  9
$OLESTARTUP
290
    0
  9
$SORTENTS
280
  127
  9
$INDEXCTL
280
    0
  9
$HIDETEXT
280
    1
  9
$XCLIPFRAME
290
    0
  9
$HALOGAP
280
    0
  9
$OBSCOLOR
 70
  257
  9
$OBSLTYPE
280
    0
  9
$INTERSECTIONDISPLAY
280
    0
  9
$INTERSECTIONCOLOR
 70
  257
  9
$DIMASSOC
280
    1
  9
$PROJECTNAME
  1

  9
$CAMERADISPLAY
290
    0
  9
$LENSLENGTH
 40
50
  9
$CAMERAHEIGHT
 40
0
  9
$STEPSPERSEC
 40
2
  9
$STEPSIZE
 40
50
  9
$3DDWFPREC
 40
2
  9
$PSOLWIDTH
 40
5
  9
$PSOLHEIGHT
 40
80
  9
$LOFTANG1
 40
1.570796326794897
  9
$LOFTANG2
 40
1.570796326794897
  9
$LOFTMAG1
 40
0
  9
$LOFTMAG2
 40
0
  9
$LOFTPARAM
 70
    7
  9
$LOFTNORMALS
280
    1
  9
$LATITUDE
 40
1
  9
$LONGITUDE
 40
1
  9
$NORTHDIRECTION
 40
0
  9
$TIMEZONE
 70
-8000
  9
$LIGHTGLYPHDISPLAY
280
    1
  9
$TILEMODELIGHTSYNCH
280
    1
  9
$SOLIDHIST
280
    1
  9
$SHOWHIST
280
    1
  9
$DWFFRAME
280
    2
  9
$DGNFRAME
280
    0
  9
$REALWORLDSCALE
290
    1
  9
$INTERFERECOLOR
 62
    1
  9
$CSHADOW
280
    0
  9
$SHADOWPLANELOCATION
 40
0
  0
ENDSEC
  0
SECTION
  2
CLASSES
  0
ENDSEC
  0
SECTION
  2
TABLES
  0
TABLE
  2
VPORT
  5
8
330
0
100
AcDbSymbolTable
 70
    1
  0
VPORT
  5
31
330
2
100
AcDbSymbolTableRecord
100
AcDbViewportTableRecord
  2
*ACTIVE
 70
    0
 10
0
 20
0
 11
1
 21
1
 12
940.5035537384193
 22
842.4651974299975
 13
0
 23
0
 14
10
 24
10
 15
10
 25
10
 16
0
 26
0
 36
1
 17
0
 27
0
 37
0
 40
1847.77376635534
 41
1.672661870503597
 42
50
 43
0
 44
0
 50
0
 51
0
 71
    0
 72
  100
 73
    1
 74
    3
 75
    0
 76
    1
 77
    0
 78
    0
281
    0
 65
    1
110
0
120
0
130
0
111
1
121
0
131
0
112
0
122
1
132
0
 79
    0
146
0
348
10020
 60
    3
 61
    5
292
1
282
    1
141
0
142
0
 63
  250
421
3358443
  0
ENDTAB
  0
TABLE
  2
LTYPE
  5
5
330
0
100
AcDbSymbolTable
 70
    4
  0
LTYPE
  5
14
330
5
100
AcDbSymbolTableRecord
100
AcDbLinetypeTableRecord
  2
ByBlock
 70
    0
  3

 72
   65
 73
    0
 40
0
  0
LTYPE
  5
15
330
5
100
AcDbSymbolTableRecord
100
AcDbLinetypeTableRecord
  2
ByLayer
 70
    0
  3

 72
   65
 73
    0
 40
0
  0
LTYPE
  5
16
330
5
100
AcDbSymbolTableRecord
100
AcDbLinetypeTableRecord
  2
Continuous
 70
    0
  3
Solid line
 72
   65
 73
    0
 40
0
  0
LTYPE
  5
32
330
5
100
AcDbSymbolTableRecord
100
AcDbLinetypeTableRecord
  2
DOT
 70
    0
  3
Dot . . . . . . . . . . . . . . . . . . . . . .
 72
   65
 73
    2
 40
6.35
 49
0
 74
    0
 49
-6.35
 74
    0
  0
LTYPE
  5
33
330
5
100
AcDbSymbolTableRecord
100
AcDbLinetypeTableRecord
  2
DOTTINY
 70
    0
  3
Dot (.15x) .....................................
 72
   65
 73
    2
 40
0.9525
 49
0
 74
    0
 49
-0.9525
 74
    0
  0
LTYPE
  5
34
330
5
100
AcDbSymbolTableRecord
100
AcDbLinetypeTableRecord
  2
DOT2
 70
    0
  3
Dot (.5x) .....................................
 72
   65
 73
    2
 40
3.175
 49
0
 74
    0
 49
-3.175
 74
    0
  0
LTYPE
  5
35
330
5
100
AcDbSymbolTableRecord
100
AcDbLinetypeTableRecord
  2
DOTX2
 70
    0
  3
Dot (2x) .  .  .  .  .  .  .  .  .  .  .  .  .
 72
   65
 73
    2
 40
12.7
 49
0
 74
    0
 49
-12.7
 74
    0
  0
LTYPE
  5
36
330
5
100
AcDbSymbolTableRecord
100
AcDbLinetypeTableRecord
  2
DASHED
 70
    0
  3
Dashed _ _ _ _ _ _ _ _ _ _ _ _ _ _ _ _ _
 72
   65
 73
    2
 40
19.05
 49
12.7
 74
    0
 49
-6.35
 74
    0
  0
LTYPE
  5
37
330
5
100
AcDbSymbolTableRecord
100
AcDbLinetypeTableRecord
  2
DASHEDTINY
 70
    0
  3
Dashed (.15x) _ _ _ _ _ _ _ _ _ _ _ _ _ _ _ _ _
 72
   65
 73
    2
 40
2.8575
 49
1.905
 74
    0
 49
-0.9525
 74
    0
  0
LTYPE
  5
38
330
5
100
AcDbSymbolTableRecord
100
AcDbLinetypeTableRecord
  2
DASHED2
 70
    0
  3
Dashed (.5x) _ _ _ _ _ _ _ _ _ _ _ _ _ _ _ _ _
 72
   65
 73
    2
 40
9.524999999999999
 49
6.35
 74
    0
 49
-3.175
 74
    0
  0
LTYPE
  5
39
330
5
100
AcDbSymbolTableRecord
100
AcDbLinetypeTableRecord
  2
DASHEDX2
 70
    0
  3
Dashed (2x) ____  ____  ____  ____  ____  ___
 72
   65
 73
    2
 40
38.09999999999999
 49
25.4
 74
    0
 49
-12.7
 74
    0
  0
LTYPE
  5
3A
330
5
100
AcDbSymbolTableRecord
100
AcDbLinetypeTableRecord
  2
DASHDOT
 70
    0
  3
Dash dot __ . __ . __ . __ . __ . __ . __ . __
 72
   65
 73
    4
 40
25.4
 49
12.7
 74
    0
 49
-6.35
 74
    0
 49
0
 74
    0
 49
-6.35
 74
    0
  0
LTYPE
  5
3B
330
5
100
AcDbSymbolTableRecord
100
AcDbLinetypeTableRecord
  2
DASHDOTTINY
 70
    0
  3
Dash dot (.15x) _._._._._._._._._._._._._._._.
 72
   65
 73
    4
 40
3.81
 49
1.905
 74
    0
 49
-0.9525
 74
    0
 49
0
 74
    0
 49
-0.9525
 74
    0
  0
LTYPE
  5
3C
330
5
100
AcDbSymbolTableRecord
100
AcDbLinetypeTableRecord
  2
DASHDOT2
 70
    0
  3
Dash dot (.5x) _._._._._._._._._._._._._._._.
 72
   65
 73
    4
 40
12.7
 49
6.35
 74
    0
 49
-3.175
 74
    0
 49
0
 74
    0
 49
-3.175
 74
    0
  0
LTYPE
  5
3D
330
5
100
AcDbSymbolTableRecord
100
AcDbLinetypeTableRecord
  2
DASHDOTX2
 70
    0
  3
Dash dot (2x) ____  .  ____  .  ____  .  ___
 72
   65
 73
    4
 40
50.8
 49
25.4
 74
    0
 49
-12.7
 74
    0
 49
0
 74
    0
 49
-12.7
 74
    0
  0
LTYPE
  5
3E
330
5
100
AcDbSymbolTableRecord
100
AcDbLinetypeTableRecord
  2
DIVIDE
 70
    0
  3
Divide ____ . . ____ . . ____ . . ____ . . ____
 72
   65
 73
    6
 40
31.75
 49
12.7
 74
    0
 49
-6.35
 74
    0
 49
0
 74
    0
 49
-6.35
 74
    0
 49
0
 74
    0
 49
-6.35
 74
    0
  0
LTYPE
  5
3F
330
5
100
AcDbSymbolTableRecord
100
AcDbLinetypeTableRecord
  2
DIVIDETINY
 70
    0
  3
Divide (.15x) __..__..__..__..__..__..__..__.._
 72
   65
 73
    6
 40
4.7625
 49
1.905
 74
    0
 49
-0.9525
 74
    0
 49
0
 74
    0
 49
-0.9525
 74
    0
 49
0
 74
    0
 49
-0.9525
 74
    0
  0
LTYPE
  5
40
330
5
100
AcDbSymbolTableRecord
100
AcDbLinetypeTableRecord
  2
DIVIDE2
 70
    0
  3
Divide (.5x) __..__..__..__..__..__..__..__.._
 72
   65
 73
    6
 40
15.875
 49
6.35
 74
    0
 49
-3.175
 74
    0
 49
0
 74
    0
 49
-3.175
 74
    0
 49
0
 74
    0
 49
-3.175
 74
    0
  0
LTYPE
  5
41
330
5
100
AcDbSymbolTableRecord
100
AcDbLinetypeTableRecord
  2
DIVIDEX2
 70
    0
  3
Divide (2x) ________  .  .  ________  .  .  _
 72
   65
 73
    6
 40
63.5
 49
25.4
 74
    0
 49
-12.7
 74
    0
 49
0
 74
    0
 49
-12.7
 74
    0
 49
0
 74
    0
 49
-12.7
 74
    0
  0
LTYPE
  5
42
330
5
100
AcDbSymbolTableRecord
100
AcDbLinetypeTableRecord
  2
BORDER
 70
    0
  3
Border __ __ . __ __ . __ __ . __ __ . __ __ .
 72
   65
 73
    6
 40
44.45
 49
12.7
 74
    0
 49
-6.35
 74
    0
 49
12.7
 74
    0
 49
-6.35
 74
    0
 49
0
 74
    0
 49
-6.35
 74
    0
  0
LTYPE
  5
43
330
5
100
AcDbSymbolTableRecord
100
AcDbLinetypeTableRecord
  2
BORDERTINY
 70
    0
  3
Border (.15x) __.__.__.__.__.__.__.__.__.__.__.
 72
   65
 73
    6
 40
6.6675
 49
1.905
 74
    0
 49
-0.9525
 74
    0
 49
1.905
 74
    0
 49
-0.9525
 74
    0
 49
0
 74
    0
 49
-0.9525
 74
    0
  0
LTYPE
  5
44
330
5
100
AcDbSymbolTableRecord
100
AcDbLinetypeTableRecord
  2
BORDER2
 70
    0
  3
Border (.5x) __.__.__.__.__.__.__.__.__.__.__.
 72
   65
 73
    6
 40
22.225
 49
6.35
 74
    0
 49
-3.175
 74
    0
 49
6.35
 74
    0
 49
-3.175
 74
    0
 49
0
 74
    0
 49
-3.175
 74
    0
  0
LTYPE
  5
45
330
5
100
AcDbSymbolTableRecord
100
AcDbLinetypeTableRecord
  2
BORDERX2
 70
    0
  3
Border (2x) ____  ____  .  ____  ____  .  ___
 72
   65
 73
    6
 40
88.89999999999999
 49
25.4
 74
    0
 49
-12.7
 74
    0
 49
25.4
 74
    0
 49
-12.7
 74
    0
 49
0
 74
    0
 49
-12.7
 74
    0
  0
LTYPE
  5
46
330
5
100
AcDbSymbolTableRecord
100
AcDbLinetypeTableRecord
  2
CENTER
 70
    0
  3
Center ____ _ ____ _ ____ _ ____ _ ____ _ ____
 72
   65
 73
    4
 40
50.8
 49
31.75
 74
    0
 49
-6.35
 74
    0
 49
6.35
 74
    0
 49
-6.35
 74
    0
  0
LTYPE
  5
47
330
5
100
AcDbSymbolTableRecord
100
AcDbLinetypeTableRecord
  2
CENTERTINY
 70
    0
  3
Center (.15x) ___ _ ___ _ ___ _ ___ _ ___ _ ___
 72
   65
 73
    4
 40
7.619999999999999
 49
4.7625
 74
    0
 49
-0.9525
 74
    0
 49
0.9525
 74
    0
 49
-0.9525
 74
    0
  0
LTYPE
  5
48
330
5
100
AcDbSymbolTableRecord
100
AcDbLinetypeTableRecord
  2
CENTER2
 70
    0
  3
Center (.5x) ___ _ ___ _ ___ _ ___ _ ___ _ ___
 72
   65
 73
    4
 40
28.575
 49
19.05
 74
    0
 49
-3.175
 74
    0
 49
3.175
 74
    0
 49
-3.175
 74
    0
  0
LTYPE
  5
49
330
5
100
AcDbSymbolTableRecord
100
AcDbLinetypeTableRecord
  2
CENTERX2
 70
    0
  3
Center (2x) ________  __  ________  __  _____
 72
   65
 73
    4
 40
101.6
 49
63.5
 74
    0
 49
-12.7
 74
    0
 49
12.7
 74
    0
 49
-12.7
 74
    0
  0
ENDTAB
  0
TABLE
  2
LAYER
  5
2
330
0
100
AcDbSymbolTable
 70
    1
  0
LAYER
  5
10
330
2
100
AcDbSymbolTableRecord
100
AcDbLayerTableRecord
  2
0
 70
    0
 62
    7
  6
CONTINUOUS
370
   70
390
F
  0
LAYER
  5
4A
330
2
100
AcDbSymbolTableRecord
100
AcDbLayerTableRecord
  2
Glas
 70
    0
 62
    7
  6
CONTINUOUS
370
   70
390
F
  0
LAYER
  5
4B
330
2
100
AcDbSymbolTableRecord
100
AcDbLayerTableRecord
  2
Masze
 70
    0
 62
    7
  6
CONTINUOUS
370
   35
390
F
  0
LAYER
  5
4C
330
2
100
AcDbSymbolTableRecord
100
AcDbLayerTableRecord
  2
Mittellinien
 70
    0
 62
    7
  6
CENTER2
370
   35
390
F
  0
LAYER
  5
4D
330
2
100
AcDbSymbolTableRecord
100
AcDbLayerTableRecord
  2
Titel
 70
    0
 62
    7
  6
CONTINUOUS
370
   25
390
F
  0
ENDTAB
  0
TABLE
  2
STYLE
  5
3
330
0
100
AcDbSymbolTable
 70
    3
  0
STYLE
  5
4E
330
2
100
AcDbSymbolTableRecord
100
AcDbTextStyleTableRecord
  2
Standard
 70
    0
 40
0
 41
1
 50
0
 71
    0
 42
1
  3
txt
  4

  0
ENDTAB
  0
TABLE
  2
VIEW
  5
6
330
0
100
AcDbSymbolTable
 70
    0
  0
ENDTAB
  0
TABLE
  2
UCS
  5
7
330
0
100
AcDbSymbolTable
 70
    0
  0
ENDTAB
  0
TABLE
  2
APPID
  5
9
330
0
100
AcDbSymbolTable
 70
    1
  0
APPID
  5
12
330
9
100
AcDbSymbolTableRecord
100
AcDbRegAppTableRecord
  2
ACAD
 70
    0
  0
APPID
  5
4F
330
9
100
AcDbSymbolTableRecord
100
AcDbRegAppTableRecord
  2
LibreCad
 70
    0
  0
ENDTAB
  0
TABLE
  2
DIMSTYLE
  5
A
330
0
100
AcDbSymbolTable
 70
    1
100
AcDbDimStyleTable
 71
    1
  0
DIMSTYLE
105
50
330
A
100
AcDbSymbolTableRecord
100
AcDbDimStyleTableRecord
  2
Standard
 70
    0
 40
5
 41
2
 42
0.625
 43
0.38
 44
1.25
 45
0
 46
0
 47
0
 48
0
 49
1
140
2
141
0.09
142
0
143
25.4
144
1
145
0
146
1
147
0.625
148
0
 71
    0
 72
    0
 73
    0
 74
    1
 75
    0
 76
    0
 77
    0
 78
    1
 79
    0
170
    0
171
    2
172
    0
173
    0
174
    0
175
    0
176
    0
177
    0
178
    0
179
    1
271
    1
272
    4
273
    2
274
    2
275
    0
276
    0
277
    2
278
    0
279
    0
280
    0
281
    0
282
    0
283
    1
284
    0
285
    0
286
    0
288
    0
289
    3
340
standard
341

371
   -2
372
   -2
  0
ENDTAB
  0
TABLE
  2
BLOCK_RECORD
  5
1
330
0
100
AcDbSymbolTable
 70
    2
  0
BLOCK_RECORD
  5
1F
330
1
100
AcDbSymbolTableRecord
100
AcDbBlockTableRecord
  2
*Model_Space
 70
    0
280
    1
281
    0
  0
BLOCK_RECORD
  5
1E
330
1
100
AcDbSymbolTableRecord
100
AcDbBlockTableRecord
  2
*Paper_Space
 70
    0
280
    1
281
    0
  0
BLOCK_RECORD
  5
51
330
1
100
AcDbSymbolTableRecord
100
AcDbBlockTableRecord
  2
*D2
 70
    0
280
    1
281
    0
  0
BLOCK_RECORD
  5
54
330
1
100
AcDbSymbolTableRecord
100
AcDbBlockTableRecord
  2
*D21
 70
    0
280
    1
281
    0
  0
BLOCK_RECORD
  5
57
330
1
100
AcDbSymbolTableRecord
100
AcDbBlockTableRecord
  2
*D1
 70
    0
280
    1
281
    0
  0
BLOCK_RECORD
  5
5A
330
1
100
AcDbSymbolTableRecord
100
AcDbBlockTableRecord
  2
*D24
 70
    0
280
    1
281
    0
  0
BLOCK_RECORD
  5
5D
330
1
100
AcDbSymbolTableRecord
100
AcDbBlockTableRecord
  2
*D3
 70
    0
280
    1
281
    0
  0
BLOCK_RECORD
  5
60
330
1
100
AcDbSymbolTableRecord
100
AcDbBlockTableRecord
  2
*D16
 70
    0
280
    1
281
    0
  0
BLOCK_RECORD
  5
63
330
1
100
AcDbSymbolTableRecord
100
AcDbBlockTableRecord
  2
*D23
 70
    0
280
    1
281
    0
  0
BLOCK_RECORD
  5
66
330
1
100
AcDbSymbolTableRecord
100
AcDbBlockTableRecord
  2
*D10
 70
    0
280
    1
281
    0
  0
BLOCK_RECORD
  5
69
330
1
100
AcDbSymbolTableRecord
100
AcDbBlockTableRecord
  2
*D22
 70
    0
280
    1
281
    0
  0
BLOCK_RECORD
  5
6C
330
1
100
AcDbSymbolTableRecord
100
AcDbBlockTableRecord
  2
*D11
 70
    0
280
    1
281
    0
  0
BLOCK_RECORD
  5
6F
330
1
100
AcDbSymbolTableRecord
100
AcDbBlockTableRecord
  2
*D14
 70
    0
280
    1
281
    0
  0
BLOCK_RECORD
  5
72
330
1
100
AcDbSymbolTableRecord
100
AcDbBlockTableRecord
  2
*D26
 70
    0
280
    1
281
    0
  0
BLOCK_RECORD
  5
75
330
1
100
AcDbSymbolTableRecord
100
AcDbBlockTableRecord
  2
*D6
 70
    0
280
    1
281
    0
  0
BLOCK_RECORD
  5
78
330
1
100
AcDbSymbolTableRecord
100
AcDbBlockTableRecord
  2
*D20
 70
    0
280
    1
281
    0
  0
BLOCK_RECORD
  5
7B
330
1
100
AcDbSymbolTableRecord
100
AcDbBlockTableRecord
  2
*D4
 70
    0
280
    1
281
    0
  0
BLOCK_RECORD
  5
7E
330
1
100
AcDbSymbolTableRecord
100
AcDbBlockTableRecord
  2
*D15
 70
    0
280
    1
281
    0
  0
BLOCK_RECORD
  5
81
330
1
100
AcDbSymbolTableRecord
100
AcDbBlockTableRecord
  2
*D19
 70
    0
280
    1
281
    0
  0
BLOCK_RECORD
  5
84
330
1
100
AcDbSymbolTableRecord
100
AcDbBlockTableRecord
  2
*D27
 70
    0
280
    1
281
    0
  0
BLOCK_RECORD
  5
87
330
1
100
AcDbSymbolTableRecord
100
AcDbBlockTableRecord
  2
*D9
 70
    0
280
    1
281
    0
  0
BLOCK_RECORD
  5
8A
330
1
100
AcDbSymbolTableRecord
100
AcDbBlockTableRecord
  2
*D25
 70
    0
280
    1
281
    0
  0
BLOCK_RECORD
  5
8D
330
1
100
AcDbSymbolTableRecord
100
AcDbBlockTableRecord
  2
*D17
 70
    0
280
    1
281
    0
  0
BLOCK_RECORD
  5
90
330
1
100
AcDbSymbolTableRecord
100
AcDbBlockTableRecord
  2
*D12
 70
    0
280
    1
281
    0
  0
BLOCK_RECORD
  5
93
330
1
100
AcDbSymbolTableRecord
100
AcDbBlockTableRecord
  2
*D8
 70
    0
280
    1
281
    0
  0
BLOCK_RECORD
  5
96
330
1
100
AcDbSymbolTableRecord
100
AcDbBlockTableRecord
  2
*D13
 70
    0
280
    1
281
    0
  0
BLOCK_RECORD
  5
99
330
1
100
AcDbSymbolTableRecord
100
AcDbBlockTableRecord
  2
*D7
 70
    0
280
    1
281
    0
  0
BLOCK_RECORD
  5
9C
330
1
100
AcDbSymbolTableRecord
100
AcDbBlockTableRecord
  2
*D5
 70
    0
280
    1
281
    0
  0
BLOCK_RECORD
  5
9F
330
1
100
AcDbSymbolTableRecord
100
AcDbBlockTableRecord
  2
*D18
 70
    0
280
    1
281
    0
  0
ENDTAB
  0
ENDSEC
  0
SECTION
  2
BLOCKS
  0
BLOCK
  5
20
330
1F
100
AcDbEntity
  8
0
100
AcDbBlockBegin
  2
*Model_Space
 70
    0
 10
0
 20
0
 30
0
  3
*Model_Space
  1

  0
ENDBLK
  5
21
330
1F
100
AcDbEntity
  8
0
100
AcDbBlockEnd
  0
BLOCK
  5
1C
330
1B
100
AcDbEntity
  8
0
100
AcDbBlockBegin
  2
*Paper_Space
 70
    0
 10
0
 20
0
 30
0
  3
*Paper_Space
  1

  0
ENDBLK
  5
1D
330
1F
100
AcDbEntity
  8
0
100
AcDbBlockEnd
  0
BLOCK
  5
52
330
51
100
AcDbEntity
  8
0
100
AcDbBlockBegin
  2
*D2
 70
    1
 10
0
 20
0
  3
*D2
  1

  0
LINE
  5
A2
100
AcDbEntity
  8
Masze
  6
ByBlock
 62
    0
370
   -2
100
AcDbLine
 10
0
 20
1062.5
 11
81
 21
1062.5
  0
SOLID
  5
A3
100
AcDbEntity
  8
Masze
  6
ByBlock
 62
    0
370
   -2
100
AcDbTrace
 10
0
 20
1062.5
 30
0
 11
10
 21
1064.165138631091
 31
0
 12
10
 22
1060.834861368909
 32
0
 13
10
 23
1060.834861368909
 33
0
  0
SOLID
  5
A4
100
AcDbEntity
  8
Masze
  6
ByBlock
 62
    0
370
   -2
100
AcDbTrace
 10
81
 20
1062.5
 30
0
 11
71
 21
1060.834861368909
 31
0
 12
71
 22
1064.165138631091
 32
0
 13
71
 23
1064.165138631091
 33
0
  0
MTEXT
  5
A5
100
AcDbEntity
  8
Masze
  6
CONTINUOUS
 62
    0
370
   -2
100
AcDbMText
 10
40.5
 20
1070.625
 30
0
 40
10
 41
21.11111111111111
 71
    5
 72
    1
  1
81.0
  7
standard
210
0
220
0
230
1
 50
0
 73
    2
 44
1
  0
LINE
  5
A6
100
AcDbEntity
  8
Masze
  6
ByBlock
 62
    0
370
   -2
100
AcDbLine
 10
1.913510623667739e-16
 20
3.125
 11
3.827021247335479e-16
 21
1068.75
  0
LINE
  5
A7
100
AcDbEntity
  8
Masze
  6
ByBlock
 62
    0
370
   -2
100
AcDbLine
 10
81
 20
1109.375
 11
81
 21
1056.25
  0
ENDBLK
  5
53
330
51
100
AcDbEntity
  8
0
100
AcDbBlockEnd
  0
BLOCK
  5
55
330
54
100
AcDbEntity
  8
0
100
AcDbBlockBegin
  2
*D21
 70
    1
 10
0
 20
0
  3
*D21
  1

  0
SOLID
  5
A8
100
AcDbEntity
  8
Masze
  6
ByBlock
 62
    0
370
   -2
100
AcDbTrace
 10
42.80330085889908
 20
580.8033008588991
 30
0
 11
48.69693785310416
 21
589.051799488425
 31
0
 12
51.05179948842493
 22
586.6969378531041
 32
0
 13
51.05179948842493
 23
586.6969378531041
 33
0
  0
LINE
  5
A9
100
AcDbEntity
  8
Masze
  6
ByBlock
 62
    0
370
   -2
100
AcDbLine
 10
37.5
 20
575.5
 11
67.94487530108785
 21
605.9448753010879
  0
MTEXT
  5
AA
100
AcDbEntity
  8
Masze
  6
CONTINUOUS
 62
    0
370
   -2
100
AcDbMText
 10
49.62884548285275
 20
599.1193306771341
 30
0
 40
10
 41
15.55555555555618
 71
    5
 72
    1
  1
7.5
  7
standard
210
0
220
0
230
1
 50
45.00000000000007
 73
    2
 44
1
  0
ENDBLK
  5
56
330
54
100
AcDbEntity
  8
0
100
AcDbBlockEnd
  0
BLOCK
  5
58
330
57
100
AcDbEntity
  8
0
100
AcDbBlockBegin
  2
*D1
 70
    1
 10
0
 20
0
  3
*D1
  1

  0
LINE
  5
AB
100
AcDbEntity
  8
Masze
  6
ByBlock
 62
    0
370
   -2
100
AcDbLine
 10
0
 20
625.5
 11
37.5
 21
625.5
  0
SOLID
  5
AC
100
AcDbEntity
  8
Masze
  6
ByBlock
 62
    0
370
   -2
100
AcDbTrace
 10
0
 20
625.5
 30
0
 11
10
 21
627.1651386310914
 31
0
 12
10
 22
623.8348613689086
 32
0
 13
10
 23
623.8348613689086
 33
0
  0
SOLID
  5
AD
100
AcDbEntity
  8
Masze
  6
ByBlock
 62
    0
370
   -2
100
AcDbTrace
 10
37.5
 20
625.5
 30
0
 11
27.5
 21
623.8348613689086
 31
0
 12
27.5
 22
627.1651386310914
 32
0
 13
27.5
 23
627.1651386310914
 33
0
  0
MTEXT
  5
AE
100
AcDbEntity
  8
Masze
  6
CONTINUOUS
 62
    0
370
   -2
100
AcDbMText
 10
18.75
 20
633.625
 30
0
 40
10
 41
23.33333333333457
 71
    5
 72
    1
  1
37.5
  7
standard
210
0
220
0
230
1
 50
0
 73
    2
 44
1
  0
LINE
  5
AF
100
AcDbEntity
  8
Masze
  6
ByBlock
 62
    0
370
   -2
100
AcDbLine
 10
1.913510623667739e-16
 20
3.125
 11
3.827021247335479e-16
 21
631.75
  0
LINE
  5
B0
100
AcDbEntity
  8
Masze
  6
ByBlock
 62
    0
370
   -2
100
AcDbLine
 10
37.5
 20
578.625
 11
37.5
 21
631.75
  0
ENDBLK
  5
59
330
57
100
AcDbEntity
  8
0
100
AcDbBlockEnd
  0
BLOCK
  5
5B
330
5A
100
AcDbEntity
  8
0
100
AcDbBlockBegin
  2
*D24
 70
    1
 10
0
 20
0
  3
*D24
  1

  0
SOLID
  5
B1
100
AcDbEntity
  8
Masze
  6
ByBlock
 62
    0
370
   -2
100
AcDbTrace
 10
944.8033008588991
 20
577.8033008588991
 30
0
 11
950.6969378531041
 21
586.051799488425
 31
0
 12
953.051799488425
 22
583.6969378531041
 32
0
 13
953.051799488425
 23
583.6969378531041
 33
0
  0
LINE
  5
B2
100
AcDbEntity
  8
Masze
  6
ByBlock
 62
    0
370
   -2
100
AcDbLine
 10
939.5
 20
572.5
 11
969.9448753010879
 21
602.9448753010879
  0
MTEXT
  5
B3
100
AcDbEntity
  8
Masze
  6
CONTINUOUS
 62
    0
370
   -2
100
AcDbMText
 10
951.6288454828529
 20
596.1193306771341
 30
0
 40
10
 41
15.55555555555618
 71
    5
 72
    1
  1
7.5
  7
standard
210
0
220
0
230
1
 50
45
 73
    2
 44
1
  0
ENDBLK
  5
5C
330
5A
100
AcDbEntity
  8
0
100
AcDbBlockEnd
  0
BLOCK
  5
5E
330
5D
100
AcDbEntity
  8
0
100
AcDbBlockBegin
  2
*D3
 70
    1
 10
0
 20
0
  3
*D3
  1

  0
LINE
  5
B4
100
AcDbEntity
  8
Masze
  6
ByBlock
 62
    0
370
   -2
100
AcDbLine
 10
0
 20
1010.5
 11
896
 21
1010.5
  0
SOLID
  5
B5
100
AcDbEntity
  8
Masze
  6
ByBlock
 62
    0
370
   -2
100
AcDbTrace
 10
0
 20
1010.5
 30
0
 11
10
 21
1012.165138631091
 31
0
 12
10
 22
1008.834861368909
 32
0
 13
10
 23
1008.834861368909
 33
0
  0
SOLID
  5
B6
100
AcDbEntity
  8
Masze
  6
ByBlock
 62
    0
370
   -2
100
AcDbTrace
 10
896
 20
1010.5
 30
0
 11
886
 21
1008.834861368909
 31
0
 12
886
 22
1012.165138631091
 32
0
 13
886
 23
1012.165138631091
 33
0
  0
MTEXT
  5
B7
100
AcDbEntity
  8
Masze
  6
CONTINUOUS
 62
    0
370
   -2
100
AcDbMText
 10
448
 20
1018.625
 30
0
 40
10
 41
31.11111111111173
 71
    5
 72
    1
  1
896.0
  7
standard
210
0
220
0
230
1
 50
0
 73
    2
 44
1
  0
LINE
  5
B8
100
AcDbEntity
  8
Masze
  6
ByBlock
 62
    0
370
   -2
100
AcDbLine
 10
1.913510623667739e-16
 20
3.125
 11
3.827021247335479e-16
 21
1016.75
  0
LINE
  5
B9
100
AcDbEntity
  8
Masze
  6
ByBlock
 62
    0
370
   -2
100
AcDbLine
 10
896
 20
1107.375
 11
896
 21
1004.25
  0
ENDBLK
  5
5F
330
5D
100
AcDbEntity
  8
0
100
AcDbBlockEnd
  0
BLOCK
  5
61
330
60
100
AcDbEntity
  8
0
100
AcDbBlockBegin
  2
*D16
 70
    1
 10
0
 20
0
  3
*D16
  1

  0
LINE
  5
BA
100
AcDbEntity
  8
Masze
  6
ByBlock
 62
    0
370
   -2
100
AcDbLine
 10
645.5
 20
0
 11
645.5
 21
858
  0
SOLID
  5
BB
100
AcDbEntity
  8
Masze
  6
ByBlock
 62
    0
370
   -2
100
AcDbTrace
 10
645.5
 20
0
 30
0
 11
643.8348613689086
 21
10
 31
0
 12
647.1651386310914
 22
10
 32
0
 13
647.1651386310914
 23
10
 33
0
  0
SOLID
  5
BC
100
AcDbEntity
  8
Masze
  6
ByBlock
 62
    0
370
   -2
100
AcDbTrace
 10
645.5
 20
858
 30
0
 11
647.1651386310914
 21
848
 31
0
 12
643.8348613689086
 22
848
 32
0
 13
643.8348613689086
 23
848
 33
0
  0
MTEXT
  5
BD
100
AcDbEntity
  8
Masze
  6
CONTINUOUS
 62
    0
370
   -2
100
AcDbMText
 10
637.375
 20
429
 30
0
 40
10
 41
31.11111111111174
 71
    5
 72
    1
  1
858.0
  7
standard
210
0
220
0
230
1
 50
90
 73
    2
 44
1
  0
LINE
  5
BE
100
AcDbEntity
  8
Masze
  6
ByBlock
 62
    0
370
   -2
100
AcDbLine
 10
3.125
 20
0
 11
651.75
 21
0
  0
LINE
  5
BF
100
AcDbEntity
  8
Masze
  6
ByBlock
 62
    0
370
   -2
100
AcDbLine
 10
913.875
 20
858
 11
639.25
 21
858
  0
ENDBLK
  5
62
330
60
100
AcDbEntity
  8
0
100
AcDbBlockEnd
  0
BLOCK
  5
64
330
63
100
AcDbEntity
  8
0
100
AcDbBlockBegin
  2
*D23
 70
    1
 10
0
 20
0
  3
*D23
  1

  0
SOLID
  5
C0
100
AcDbEntity
  8
Masze
  6
ByBlock
 62
    0
370
   -2
100
AcDbTrace
 10
901.3033008588991
 20
41.80330085889908
 30
0
 11
907.1969378531041
 21
50.05179948842493
 31
0
 12
909.551799488425
 22
47.69693785310415
 32
0
 13
909.551799488425
 23
47.69693785310415
 33
0
  0
LINE
  5
C1
100
AcDbEntity
  8
Masze
  6
ByBlock
 62
    0
370
   -2
100
AcDbLine
 10
896
 20
36.5
 11
926.4448753010879
 21
66.94487530108785
  0
MTEXT
  5
C2
100
AcDbEntity
  8
Masze
  6
CONTINUOUS
 62
    0
370
   -2
100
AcDbMText
 10
908.1288454828529
 20
60.11933067713417
 30
0
 40
10
 41
15.55555555555618
 71
    5
 72
    1
  1
7.5
  7
standard
210
0
220
0
230
1
 50
44.99999999999992
 73
    2
 44
1
  0
ENDBLK
  5
65
330
63
100
AcDbEntity
  8
0
100
AcDbBlockEnd
  0
BLOCK
  5
67
330
66
100
AcDbEntity
  8
0
100
AcDbBlockBegin
  2
*D10
 70
    1
 10
0
 20
0
  3
*D10
  1

  0
LINE
  5
C3
100
AcDbEntity
  8
Masze
  6
ByBlock
 62
    0
370
   -2
100
AcDbLine
 10
180
 20
0
 11
180
 21
575.5
  0
SOLID
  5
C4
100
AcDbEntity
  8
Masze
  6
ByBlock
 62
    0
370
   -2
100
AcDbTrace
 10
180
 20
0
 30
0
 11
178.3348613689086
 21
10
 31
0
 12
181.6651386310914
 22
10
 32
0
 13
181.6651386310914
 23
10
 33
0
  0
SOLID
  5
C5
100
AcDbEntity
  8
Masze
  6
ByBlock
 62
    0
370
   -2
100
AcDbTrace
 10
180
 20
575.5
 30
0
 11
181.6651386310914
 21
565.5
 31
0
 12
178.3348613689086
 22
565.5
 32
0
 13
178.3348613689086
 23
565.5
 33
0
  0
MTEXT
  5
C6
100
AcDbEntity
  8
Masze
  6
CONTINUOUS
 62
    0
370
   -2
100
AcDbMText
 10
171.875
 20
287.75
 30
0
 40
10
 41
31.11111111111297
 71
    5
 72
    1
  1
575.5
  7
standard
210
0
220
0
230
1
 50
90
 73
    2
 44
1
  0
LINE
  5
C7
100
AcDbEntity
  8
Masze
  6
ByBlock
 62
    0
370
   -2
100
AcDbLine
 10
3.125
 20
0
 11
186.25
 21
0
  0
LINE
  5
C8
100
AcDbEntity
  8
Masze
  6
ByBlock
 62
    0
370
   -2
100
AcDbLine
 10
40.625
 20
575.5
 11
186.25
 21
575.5
  0
ENDBLK
  5
68
330
66
100
AcDbEntity
  8
0
100
AcDbBlockEnd
  0
BLOCK
  5
6A
330
69
100
AcDbEntity
  8
0
100
AcDbBlockBegin
  2
*D22
 70
    1
 10
0
 20
0
  3
*D22
  1

  0
SOLID
  5
C9
100
AcDbEntity
  8
Masze
  6
ByBlock
 62
    0
370
   -2
100
AcDbTrace
 10
85.30330085889915
 20
42.80330085889908
 30
0
 11
91.1969378531043
 21
51.0517994884249
 31
0
 12
93.55179948842505
 22
48.69693785310411
 32
0
 13
93.55179948842505
 23
48.69693785310411
 33
0
  0
LINE
  5
CA
100
AcDbEntity
  8
Masze
  6
ByBlock
 62
    0
370
   -2
100
AcDbLine
 10
80
 20
37.5
 11
110.4448753010881
 21
67.94487530108771
  0
MTEXT
  5
CB
100
AcDbEntity
  8
Masze
  6
CONTINUOUS
 62
    0
370
   -2
100
AcDbMText
 10
92.12884548285297
 20
61.11933067713413
 30
0
 40
10
 41
15.55555555555618
 71
    5
 72
    1
  1
7.5
  7
standard
210
0
220
0
230
1
 50
44.99999999999962
 73
    2
 44
1
  0
ENDBLK
  5
6B
330
69
100
AcDbEntity
  8
0
100
AcDbBlockEnd
  0
BLOCK
  5
6D
330
6C
100
AcDbEntity
  8
0
100
AcDbBlockBegin
  2
*D11
 70
    1
 10
0
 20
0
  3
*D11
  1

  0
LINE
  5
CC
100
AcDbEntity
  8
Masze
  6
ByBlock
 62
    0
370
   -2
100
AcDbLine
 10
795.5
 20
0
 11
795.5
 21
572.5
  0
SOLID
  5
CD
100
AcDbEntity
  8
Masze
  6
ByBlock
 62
    0
370
   -2
100
AcDbTrace
 10
795.5
 20
0
 30
0
 11
793.8348613689086
 21
10
 31
0
 12
797.1651386310914
 22
10
 32
0
 13
797.1651386310914
 23
10
 33
0
  0
SOLID
  5
CE
100
AcDbEntity
  8
Masze
  6
ByBlock
 62
    0
370
   -2
100
AcDbTrace
 10
795.5
 20
572.5
 30
0
 11
797.1651386310914
 21
562.5
 31
0
 12
793.8348613689086
 22
562.5
 32
0
 13
793.8348613689086
 23
562.5
 33
0
  0
MTEXT
  5
CF
100
AcDbEntity
  8
Masze
  6
CONTINUOUS
 62
    0
370
   -2
100
AcDbMText
 10
787.375
 20
286.25
 30
0
 40
10
 41
31.11111111111235
 71
    5
 72
    1
  1
572.5
  7
standard
210
0
220
0
230
1
 50
90
 73
    2
 44
1
  0
LINE
  5
D0
100
AcDbEntity
  8
Masze
  6
ByBlock
 62
    0
370
   -2
100
AcDbLine
 10
3.125
 20
0
 11
801.75
 21
0
  0
LINE
  5
D1
100
AcDbEntity
  8
Masze
  6
ByBlock
 62
    0
370
   -2
100
AcDbLine
 10
936.375
 20
572.5
 11
789.25
 21
572.5
  0
ENDBLK
  5
6E
330
6C
100
AcDbEntity
  8
0
100
AcDbBlockEnd
  0
BLOCK
  5
70
330
6F
100
AcDbEntity
  8
0
100
AcDbBlockBegin
  2
*D14
 70
    1
 10
0
 20
0
  3
*D14
  1

  0
LINE
  5
D2
100
AcDbEntity
  8
Masze
  6
ByBlock
 62
    0
370
   -2
100
AcDbLine
 10
695
 20
0
 11
695
 21
808
  0
SOLID
  5
D3
100
AcDbEntity
  8
Masze
  6
ByBlock
 62
    0
370
   -2
100
AcDbTrace
 10
695
 20
0
 30
0
 11
693.3348613689086
 21
10
 31
0
 12
696.6651386310914
 22
10
 32
0
 13
696.6651386310914
 23
10
 33
0
  0
SOLID
  5
D4
100
AcDbEntity
  8
Masze
  6
ByBlock
 62
    0
370
   -2
100
AcDbTrace
 10
695
 20
808
 30
0
 11
696.6651386310914
 21
798
 31
0
 12
693.3348613689086
 22
798
 32
0
 13
693.3348613689086
 23
798
 33
0
  0
MTEXT
  5
D5
100
AcDbEntity
  8
Masze
  6
CONTINUOUS
 62
    0
370
   -2
100
AcDbMText
 10
686.875
 20
404
 30
0
 40
10
 41
31.11111111111111
 71
    5
 72
    1
  1
808.0
  7
standard
210
0
220
0
230
1
 50
90
 73
    2
 44
1
  0
LINE
  5
D6
100
AcDbEntity
  8
Masze
  6
ByBlock
 62
    0
370
   -2
100
AcDbLine
 10
3.125
 20
0
 11
701.25
 21
0
  0
LINE
  5
D7
100
AcDbEntity
  8
Masze
  6
ByBlock
 62
    0
370
   -2
100
AcDbLine
 10
913.875
 20
808
 11
688.75
 21
808
  0
ENDBLK
  5
71
330
6F
100
AcDbEntity
  8
0
100
AcDbBlockEnd
  0
BLOCK
  5
73
330
72
100
AcDbEntity
  8
0
100
AcDbBlockBegin
  2
*D26
 70
    1
 10
0
 20
0
  3
*D26
  1

  0
LINE
  5
D8
100
AcDbEntity
  8
Masze
  6
ByBlock
 62
    0
370
   -2
100
AcDbLine
 10
-50.0000000000001
 20
0
 11
-50
 21
1424
  0
SOLID
  5
D9
100
AcDbEntity
  8
Masze
  6
ByBlock
 62
    0
370
   -2
100
AcDbTrace
 10
-50.0000000000001
 20
0
 30
0
 11
-51.66513863109146
 21
10
 31
0
 12
-48.33486136890873
 22
10
 32
0
 13
-48.33486136890873
 23
10
 33
0
  0
SOLID
  5
DA
100
AcDbEntity
  8
Masze
  6
ByBlock
 62
    0
370
   -2
100
AcDbTrace
 10
-50
 20
1424
 30
0
 11
-48.33486136890864
 21
1414
 31
0
 12
-51.66513863109136
 22
1414
 32
0
 13
-51.66513863109136
 23
1414
 33
0
  0
MTEXT
  5
DB
100
AcDbEntity
  8
Masze
  6
CONTINUOUS
 62
    0
370
   -2
100
AcDbMText
 10
-58.12500000000005
 20
712
 30
0
 40
10
 41
38.88888888888889
 71
    5
 72
    1
  1
1424.0
  7
standard
210
0
220
0
230
1
 50
90
 73
    2
 44
1
  0
LINE
  5
DC
100
AcDbEntity
  8
Masze
  6
ByBlock
 62
    0
370
   -2
100
AcDbLine
 10
-3.125
 20
3.827021247335479e-16
 11
-56.2500000000001
 21
7.654042494670958e-16
  0
LINE
  5
DD
100
AcDbEntity
  8
Masze
  6
ByBlock
 62
    0
370
   -2
100
AcDbLine
 10
-3.125
 20
1424
 11
-56.25
 21
1424
  0
ENDBLK
  5
74
330
72
100
AcDbEntity
  8
0
100
AcDbBlockEnd
  0
BLOCK
  5
76
330
75
100
AcDbEntity
  8
0
100
AcDbBlockBegin
  2
*D6
 70
    1
 10
0
 20
0
  3
*D6
  1

  0
LINE
  5
DE
100
AcDbEntity
  8
Masze
  6
ByBlock
 62
    0
370
   -2
100
AcDbLine
 10
0
 20
136.5
 11
896
 21
136.5
  0
SOLID
  5
DF
100
AcDbEntity
  8
Masze
  6
ByBlock
 62
    0
370
   -2
100
AcDbTrace
 10
0
 20
136.5
 30
0
 11
10
 21
138.1651386310914
 31
0
 12
10
 22
134.8348613689086
 32
0
 13
10
 23
134.8348613689086
 33
0
  0
SOLID
  5
E0
100
AcDbEntity
  8
Masze
  6
ByBlock
 62
    0
370
   -2
100
AcDbTrace
 10
896
 20
136.5
 30
0
 11
886
 21
134.8348613689086
 31
0
 12
886
 22
138.1651386310914
 32
0
 13
886
 23
138.1651386310914
 33
0
  0
MTEXT
  5
E1
100
AcDbEntity
  8
Masze
  6
CONTINUOUS
 62
    0
370
   -2
100
AcDbMText
 10
448
 20
144.625
 30
0
 40
10
 41
31.11111111111173
 71
    5
 72
    1
  1
896.0
  7
standard
210
0
220
0
230
1
 50
0
 73
    2
 44
1
  0
LINE
  5
E2
100
AcDbEntity
  8
Masze
  6
ByBlock
 62
    0
370
   -2
100
AcDbLine
 10
1.913510623667739e-16
 20
3.125
 11
3.827021247335479e-16
 21
142.75
  0
LINE
  5
E3
100
AcDbEntity
  8
Masze
  6
ByBlock
 62
    0
370
   -2
100
AcDbLine
 10
896
 20
39.625
 11
896
 21
142.75
  0
ENDBLK
  5
77
330
75
100
AcDbEntity
  8
0
100
AcDbBlockEnd
  0
BLOCK
  5
79
330
78
100
AcDbEntity
  8
0
100
AcDbBlockBegin
  2
*D20
 70
    1
 10
0
 20
0
  3
*D20
  1

  0
SOLID
  5
E4
100
AcDbEntity
  8
Masze
  6
ByBlock
 62
    0
370
   -2
100
AcDbTrace
 10
927.6066017177982
 20
868.6066017177982
 30
0
 11
933.5002387120032
 21
876.8551003473241
 31
0
 12
935.8551003473241
 22
874.5002387120032
 32
0
 13
935.8551003473241
 23
874.5002387120032
 33
0
  0
LINE
  5
E5
100
AcDbEntity
  8
Masze
  6
ByBlock
 62
    0
370
   -2
100
AcDbLine
 10
917
 20
858
 11
956.6765471665789
 21
897.6765471665789
  0
MTEXT
  5
E6
100
AcDbEntity
  8
Masze
  6
CONTINUOUS
 62
    0
370
   -2
100
AcDbMText
 10
936.3963318450479
 20
888.8868170393292
 30
0
 40
10
 41
21.11111111111173
 71
    5
 72
    1
  1
15.0
  7
standard
210
0
220
0
230
1
 50
45
 73
    2
 44
1
  0
ENDBLK
  5
7A
330
78
100
AcDbEntity
  8
0
100
AcDbBlockEnd
  0
BLOCK
  5
7C
330
7B
100
AcDbEntity
  8
0
100
AcDbBlockBegin
  2
*D4
 70
    1
 10
0
 20
0
  3
*D4
  1

  0
LINE
  5
E7
100
AcDbEntity
  8
Masze
  6
ByBlock
 62
    0
370
   -2
100
AcDbLine
 10
0
 20
522.5
 11
939.5
 21
522.5
  0
SOLID
  5
E8
100
AcDbEntity
  8
Masze
  6
ByBlock
 62
    0
370
   -2
100
AcDbTrace
 10
0
 20
522.5
 30
0
 11
10
 21
524.1651386310914
 31
0
 12
10
 22
520.8348613689086
 32
0
 13
10
 23
520.8348613689086
 33
0
  0
SOLID
  5
E9
100
AcDbEntity
  8
Masze
  6
ByBlock
 62
    0
370
   -2
100
AcDbTrace
 10
939.5
 20
522.5
 30
0
 11
929.5
 21
520.8348613689086
 31
0
 12
929.5
 22
524.1651386310914
 32
0
 13
929.5
 23
524.1651386310914
 33
0
  0
MTEXT
  5
EA
100
AcDbEntity
  8
Masze
  6
CONTINUOUS
 62
    0
370
   -2
100
AcDbMText
 10
469.75
 20
530.625
 30
0
 40
10
 41
31.11111111111298
 71
    5
 72
    1
  1
939.5
  7
standard
210
0
220
0
230
1
 50
0
 73
    2
 44
1
  0
LINE
  5
EB
100
AcDbEntity
  8
Masze
  6
ByBlock
 62
    0
370
   -2
100
AcDbLine
 10
1.913510623667739e-16
 20
3.125
 11
3.827021247335479e-16
 21
528.75
  0
LINE
  5
EC
100
AcDbEntity
  8
Masze
  6
ByBlock
 62
    0
370
   -2
100
AcDbLine
 10
939.5
 20
569.375
 11
939.5
 21
516.25
  0
ENDBLK
  5
7D
330
7B
100
AcDbEntity
  8
0
100
AcDbBlockEnd
  0
BLOCK
  5
7F
330
7E
100
AcDbEntity
  8
0
100
AcDbBlockBegin
  2
*D15
 70
    1
 10
0
 20
0
  3
*D15
  1

  0
LINE
  5
ED
100
AcDbEntity
  8
Masze
  6
ByBlock
 62
    0
370
   -2
100
AcDbLine
 10
745.5
 20
770.5
 11
745.5
 21
808
  0
SOLID
  5
EE
100
AcDbEntity
  8
Masze
  6
ByBlock
 62
    0
370
   -2
100
AcDbTrace
 10
745.5
 20
770.5
 30
0
 11
743.8348613689086
 21
780.5
 31
0
 12
747.1651386310914
 22
780.5
 32
0
 13
747.1651386310914
 23
780.5
 33
0
  0
SOLID
  5
EF
100
AcDbEntity
  8
Masze
  6
ByBlock
 62
    0
370
   -2
100
AcDbTrace
 10
745.5
 20
808
 30
0
 11
747.1651386310914
 21
798
 31
0
 12
743.8348613689086
 22
798
 32
0
 13
743.8348613689086
 23
798
 33
0
  0
MTEXT
  5
F0
100
AcDbEntity
  8
Masze
  6
CONTINUOUS
 62
    0
370
   -2
100
AcDbMText
 10
737.375
 20
789.25
 30
0
 40
10
 41
23.33333333333457
 71
    5
 72
    1
  1
37.5
  7
standard
210
0
220
0
230
1
 50
90
 73
    2
 44
1
  0
LINE
  5
F1
100
AcDbEntity
  8
Masze
  6
ByBlock
 62
    0
370
   -2
100
AcDbLine
 10
913.875
 20
770.5
 11
739.25
 21
770.5
  0
LINE
  5
F2
100
AcDbEntity
  8
Masze
  6
ByBlock
 62
    0
370
   -2
100
AcDbLine
 10
913.875
 20
808
 11
739.25
 21
808
  0
ENDBLK
  5
80
330
7E
100
AcDbEntity
  8
0
100
AcDbBlockEnd
  0
BLOCK
  5
82
330
81
100
AcDbEntity
  8
0
100
AcDbBlockBegin
  2
*D19
 70
    1
 10
0
 20
0
  3
*D19
  1

  0
SOLID
  5
F3
100
AcDbEntity
  8
Masze
  6
ByBlock
 62
    0
370
   -2
100
AcDbTrace
 10
86.30330085889955
 20
1117.803300858899
 30
0
 11
92.19693785310535
 21
1126.051799488424
 31
0
 12
94.55179948842591
 22
1123.696937853103
 32
0
 13
94.55179948842591
 23
1123.696937853103
 33
0
  0
LINE
  5
F4
100
AcDbEntity
  8
Masze
  6
ByBlock
 62
    0
370
   -2
100
AcDbLine
 10
81
 20
1112.5
 11
111.4448753010905
 21
1142.944875301085
  0
MTEXT
  5
F5
100
AcDbEntity
  8
Masze
  6
CONTINUOUS
 62
    0
370
   -2
100
AcDbMText
 10
93.12884548285483
 20
1136.119330677133
 30
0
 40
10
 41
15.55555555555618
 71
    5
 72
    1
  1
7.5
  7
standard
210
0
220
0
230
1
 50
44.99999999999509
 73
    2
 44
1
  0
ENDBLK
  5
83
330
81
100
AcDbEntity
  8
0
100
AcDbBlockEnd
  0
BLOCK
  5
85
330
84
100
AcDbEntity
  8
0
100
AcDbBlockBegin
  2
*D27
 70
    1
 10
0
 20
0
  3
*D27
  1

  0
LINE
  5
F6
100
AcDbEntity
  8
Masze
  6
ByBlock
 62
    0
370
   -2
100
AcDbLine
 10
0
 20
-50
 11
977
 21
-50
  0
SOLID
  5
F7
100
AcDbEntity
  8
Masze
  6
ByBlock
 62
    0
370
   -2
100
AcDbTrace
 10
0
 20
-50
 30
0
 11
10
 21
-48.33486136890864
 31
0
 12
10
 22
-51.66513863109137
 32
0
 13
10
 23
-51.66513863109137
 33
0
  0
SOLID
  5
F8
100
AcDbEntity
  8
Masze
  6
ByBlock
 62
    0
370
   -2
100
AcDbTrace
 10
977
 20
-50
 30
0
 11
967
 21
-51.66513863109136
 31
0
 12
967
 22
-48.33486136890864
 32
0
 13
967
 23
-48.33486136890864
 33
0
  0
MTEXT
  5
F9
100
AcDbEntity
  8
Masze
  6
CONTINUOUS
 62
    0
370
   -2
100
AcDbMText
 10
488.5
 20
-41.875
 30
0
 40
10
 41
31.11111111111173
 71
    5
 72
    1
  1
977.0
  7
standard
210
0
220
0
230
1
 50
0
 73
    2
 44
1
  0
LINE
  5
FA
100
AcDbEntity
  8
Masze
  6
ByBlock
 62
    0
370
   -2
100
AcDbLine
 10
-5.740531871003218e-16
 20
-3.125
 11
-1.148106374200644e-15
 21
-56.25
  0
LINE
  5
FB
100
AcDbEntity
  8
Masze
  6
ByBlock
 62
    0
370
   -2
100
AcDbLine
 10
977
 20
-3.125
 11
977
 21
-56.25
  0
ENDBLK
  5
86
330
84
100
AcDbEntity
  8
0
100
AcDbBlockEnd
  0
BLOCK
  5
88
330
87
100
AcDbEntity
  8
0
100
AcDbBlockBegin
  2
*D9
 70
    1
 10
0
 20
0
  3
*D9
  1

  0
LINE
  5
FC
100
AcDbEntity
  8
Masze
  6
ByBlock
 62
    0
370
   -2
100
AcDbLine
 10
845
 20
0
 11
845
 21
36.5
  0
SOLID
  5
FD
100
AcDbEntity
  8
Masze
  6
ByBlock
 62
    0
370
   -2
100
AcDbTrace
 10
845
 20
0
 30
0
 11
843.3348613689086
 21
10
 31
0
 12
846.6651386310914
 22
10
 32
0
 13
846.6651386310914
 23
10
 33
0
  0
SOLID
  5
FE
100
AcDbEntity
  8
Masze
  6
ByBlock
 62
    0
370
   -2
100
AcDbTrace
 10
845
 20
36.5
 30
0
 11
846.6651386310914
 21
26.5
 31
0
 12
843.3348613689086
 22
26.5
 32
0
 13
843.3348613689086
 23
26.5
 33
0
  0
MTEXT
  5
FF
100
AcDbEntity
  8
Masze
  6
CONTINUOUS
 62
    0
370
   -2
100
AcDbMText
 10
836.875
 20
18.25
 30
0
 40
10
 41
23.33333333333519
 71
    5
 72
    1
  1
36.5
  7
standard
210
0
220
0
230
1
 50
90
 73
    2
 44
1
  0
LINE
  5
100
100
AcDbEntity
  8
Masze
  6
ByBlock
 62
    0
370
   -2
100
AcDbLine
 10
3.125
 20
0
 11
851.25
 21
0
  0
LINE
  5
101
100
AcDbEntity
  8
Masze
  6
ByBlock
 62
    0
370
   -2
100
AcDbLine
 10
892.875
 20
36.5
 11
838.75
 21
36.5
  0
ENDBLK
  5
89
330
87
100
AcDbEntity
  8
0
100
AcDbBlockEnd
  0
BLOCK
  5
8B
330
8A
100
AcDbEntity
  8
0
100
AcDbBlockBegin
  2
*D25
 70
    1
 10
0
 20
0
  3
*D25
  1

  0
LINE
  5
102
100
AcDbEntity
  8
Masze
  6
ByBlock
 62
    0
370
   -2
100
AcDbLine
 10
904.5
 20
670.5
 11
929.5
 21
670.5
  0
SOLID
  5
103
100
AcDbEntity
  8
Masze
  6
ByBlock
 62
    0
370
   -2
100
AcDbTrace
 10
904.5
 20
670.5
 30
0
 11
914.5
 21
672.1651386310914
 31
0
 12
914.5
 22
668.8348613689086
 32
0
 13
914.5
 23
668.8348613689086
 33
0
  0
SOLID
  5
104
100
AcDbEntity
  8
Masze
  6
ByBlock
 62
    0
370
   -2
100
AcDbTrace
 10
929.5
 20
670.5
 30
0
 11
919.5
 21
668.8348613689086
 31
0
 12
919.5
 22
672.1651386310914
 32
0
 13
919.5
 23
672.1651386310914
 33
0
  0
MTEXT
  5
105
100
AcDbEntity
  8
Masze
  6
CONTINUOUS
 62
    0
370
   -2
100
AcDbMText
 10
917
 20
678.625
 30
0
 40
10
 41
23.33333333333396
 71
    5
 72
    1
  1
25.0
  7
standard
210
0
220
0
230
1
 50
0
 73
    2
 44
1
  0
LINE
  5
106
100
AcDbEntity
  8
Masze
  6
ByBlock
 62
    0
370
   -2
100
AcDbLine
 10
904.5
 20
767.375
 11
904.5
 21
664.25
  0
LINE
  5
107
100
AcDbEntity
  8
Masze
  6
ByBlock
 62
    0
370
   -2
100
AcDbLine
 10
929.5
 20
767.375
 11
929.5
 21
664.25
  0
ENDBLK
  5
8C
330
8A
100
AcDbEntity
  8
0
100
AcDbBlockEnd
  0
BLOCK
  5
8E
330
8D
100
AcDbEntity
  8
0
100
AcDbBlockBegin
  2
*D17
 70
    1
 10
0
 20
0
  3
*D17
  1

  0
LINE
  5
108
100
AcDbEntity
  8
Masze
  6
ByBlock
 62
    0
370
   -2
100
AcDbLine
 10
595.5
 20
0
 11
595.5
 21
1110.5
  0
SOLID
  5
109
100
AcDbEntity
  8
Masze
  6
ByBlock
 62
    0
370
   -2
100
AcDbTrace
 10
595.5
 20
0
 30
0
 11
593.8348613689086
 21
10
 31
0
 12
597.1651386310914
 22
10
 32
0
 13
597.1651386310914
 23
10
 33
0
  0
SOLID
  5
10A
100
AcDbEntity
  8
Masze
  6
ByBlock
 62
    0
370
   -2
100
AcDbTrace
 10
595.5
 20
1110.5
 30
0
 11
597.1651386310914
 21
1100.5
 31
0
 12
593.8348613689086
 22
1100.5
 32
0
 13
593.8348613689086
 23
1100.5
 33
0
  0
MTEXT
  5
10B
100
AcDbEntity
  8
Masze
  6
CONTINUOUS
 62
    0
370
   -2
100
AcDbMText
 10
587.375
 20
555.25
 30
0
 40
10
 41
32.22222222222284
 71
    5
 72
    1
  1
1110.5
  7
standard
210
0
220
0
230
1
 50
90
 73
    2
 44
1
  0
LINE
  5
10C
100
AcDbEntity
  8
Masze
  6
ByBlock
 62
    0
370
   -2
100
AcDbLine
 10
3.125
 20
0
 11
601.75
 21
0
  0
LINE
  5
10D
100
AcDbEntity
  8
Masze
  6
ByBlock
 62
    0
370
   -2
100
AcDbLine
 10
892.875
 20
1110.5
 11
589.25
 21
1110.5
  0
ENDBLK
  5
8F
330
8D
100
AcDbEntity
  8
0
100
AcDbBlockEnd
  0
BLOCK
  5
91
330
90
100
AcDbEntity
  8
0
100
AcDbBlockBegin
  2
*D12
 70
    1
 10
0
 20
0
  3
*D12
  1

  0
LINE
  5
10E
100
AcDbEntity
  8
Masze
  6
ByBlock
 62
    0
370
   -2
100
AcDbLine
 10
230
 20
0
 11
230
 21
1112.5
  0
SOLID
  5
10F
100
AcDbEntity
  8
Masze
  6
ByBlock
 62
    0
370
   -2
100
AcDbTrace
 10
230
 20
0
 30
0
 11
228.3348613689086
 21
10
 31
0
 12
231.6651386310914
 22
10
 32
0
 13
231.6651386310914
 23
10
 33
0
  0
SOLID
  5
110
100
AcDbEntity
  8
Masze
  6
ByBlock
 62
    0
370
   -2
100
AcDbTrace
 10
230
 20
1112.5
 30
0
 11
231.6651386310914
 21
1102.5
 31
0
 12
228.3348613689086
 22
1102.5
 32
0
 13
228.3348613689086
 23
1102.5
 33
0
  0
MTEXT
  5
111
100
AcDbEntity
  8
Masze
  6
CONTINUOUS
 62
    0
370
   -2
100
AcDbMText
 10
221.875
 20
556.25
 30
0
 40
10
 41
32.22222222222284
 71
    5
 72
    1
  1
1112.5
  7
standard
210
0
220
0
230
1
 50
90
 73
    2
 44
1
  0
LINE
  5
112
100
AcDbEntity
  8
Masze
  6
ByBlock
 62
    0
370
   -2
100
AcDbLine
 10
3.125
 20
0
 11
236.25
 21
0
  0
LINE
  5
113
100
AcDbEntity
  8
Masze
  6
ByBlock
 62
    0
370
   -2
100
AcDbLine
 10
84.125
 20
1112.5
 11
236.25
 21
1112.5
  0
ENDBLK
  5
92
330
90
100
AcDbEntity
  8
0
100
AcDbBlockEnd
  0
BLOCK
  5
94
330
93
100
AcDbEntity
  8
0
100
AcDbBlockBegin
  2
*D8
 70
    1
 10
0
 20
0
  3
*D8
  1

  0
LINE
  5
114
100
AcDbEntity
  8
Masze
  6
ByBlock
 62
    0
370
   -2
100
AcDbLine
 10
130
 20
0
 11
130
 21
37.5
  0
SOLID
  5
115
100
AcDbEntity
  8
Masze
  6
ByBlock
 62
    0
370
   -2
100
AcDbTrace
 10
130
 20
0
 30
0
 11
128.3348613689086
 21
10
 31
0
 12
131.6651386310914
 22
10
 32
0
 13
131.6651386310914
 23
10
 33
0
  0
SOLID
  5
116
100
AcDbEntity
  8
Masze
  6
ByBlock
 62
    0
370
   -2
100
AcDbTrace
 10
130
 20
37.5
 30
0
 11
131.6651386310914
 21
27.5
 31
0
 12
128.3348613689086
 22
27.5
 32
0
 13
128.3348613689086
 23
27.5
 33
0
  0
MTEXT
  5
117
100
AcDbEntity
  8
Masze
  6
CONTINUOUS
 62
    0
370
   -2
100
AcDbMText
 10
121.875
 20
18.75
 30
0
 40
10
 41
23.33333333333457
 71
    5
 72
    1
  1
37.5
  7
standard
210
0
220
0
230
1
 50
90
 73
    2
 44
1
  0
LINE
  5
118
100
AcDbEntity
  8
Masze
  6
ByBlock
 62
    0
370
   -2
100
AcDbLine
 10
3.125
 20
0
 11
136.25
 21
0
  0
LINE
  5
119
100
AcDbEntity
  8
Masze
  6
ByBlock
 62
    0
370
   -2
100
AcDbLine
 10
83.125
 20
37.5
 11
136.25
 21
37.5
  0
ENDBLK
  5
95
330
93
100
AcDbEntity
  8
0
100
AcDbBlockEnd
  0
BLOCK
  5
97
330
96
100
AcDbEntity
  8
0
100
AcDbBlockBegin
  2
*D13
 70
    1
 10
0
 20
0
  3
*D13
  1

  0
LINE
  5
11A
100
AcDbEntity
  8
Masze
  6
ByBlock
 62
    0
370
   -2
100
AcDbLine
 10
745.5
 20
0
 11
745.5
 21
770.5
  0
SOLID
  5
11B
100
AcDbEntity
  8
Masze
  6
ByBlock
 62
    0
370
   -2
100
AcDbTrace
 10
745.5
 20
0
 30
0
 11
743.8348613689086
 21
10
 31
0
 12
747.1651386310914
 22
10
 32
0
 13
747.1651386310914
 23
10
 33
0
  0
SOLID
  5
11C
100
AcDbEntity
  8
Masze
  6
ByBlock
 62
    0
370
   -2
100
AcDbTrace
 10
745.5
 20
770.5
 30
0
 11
747.1651386310914
 21
760.5
 31
0
 12
743.8348613689086
 22
760.5
 32
0
 13
743.8348613689086
 23
760.5
 33
0
  0
MTEXT
  5
11D
100
AcDbEntity
  8
Masze
  6
CONTINUOUS
 62
    0
370
   -2
100
AcDbMText
 10
737.375
 20
385.25
 30
0
 40
10
 41
31.11111111111173
 71
    5
 72
    1
  1
770.5
  7
standard
210
0
220
0
230
1
 50
90
 73
    2
 44
1
  0
LINE
  5
11E
100
AcDbEntity
  8
Masze
  6
ByBlock
 62
    0
370
   -2
100
AcDbLine
 10
3.125
 20
0
 11
751.75
 21
0
  0
LINE
  5
11F
100
AcDbEntity
  8
Masze
  6
ByBlock
 62
    0
370
   -2
100
AcDbLine
 10
913.875
 20
770.5
 11
739.25
 21
770.5
  0
ENDBLK
  5
98
330
96
100
AcDbEntity
  8
0
100
AcDbBlockEnd
  0
BLOCK
  5
9A
330
99
100
AcDbEntity
  8
0
100
AcDbBlockBegin
  2
*D7
 70
    1
 10
0
 20
0
  3
*D7
  1

  0
LINE
  5
120
100
AcDbEntity
  8
Masze
  6
ByBlock
 62
    0
370
   -2
100
AcDbLine
 10
0
 20
720.5
 11
917
 21
720.5
  0
SOLID
  5
121
100
AcDbEntity
  8
Masze
  6
ByBlock
 62
    0
370
   -2
100
AcDbTrace
 10
0
 20
720.5
 30
0
 11
10
 21
722.1651386310914
 31
0
 12
10
 22
718.8348613689086
 32
0
 13
10
 23
718.8348613689086
 33
0
  0
SOLID
  5
122
100
AcDbEntity
  8
Masze
  6
ByBlock
 62
    0
370
   -2
100
AcDbTrace
 10
917
 20
720.5
 30
0
 11
907
 21
718.8348613689086
 31
0
 12
907
 22
722.1651386310914
 32
0
 13
907
 23
722.1651386310914
 33
0
  0
MTEXT
  5
123
100
AcDbEntity
  8
Masze
  6
CONTINUOUS
 62
    0
370
   -2
100
AcDbMText
 10
458.5
 20
728.625
 30
0
 40
10
 41
28.88888888888951
 71
    5
 72
    1
  1
917.0
  7
standard
210
0
220
0
230
1
 50
0
 73
    2
 44
1
  0
LINE
  5
124
100
AcDbEntity
  8
Masze
  6
ByBlock
 62
    0
370
   -2
100
AcDbLine
 10
1.913510623667739e-16
 20
3.125
 11
3.827021247335479e-16
 21
726.75
  0
LINE
  5
125
100
AcDbEntity
  8
Masze
  6
ByBlock
 62
    0
370
   -2
100
AcDbLine
 10
917
 20
854.875
 11
917
 21
714.25
  0
ENDBLK
  5
9B
330
99
100
AcDbEntity
  8
0
100
AcDbBlockEnd
  0
BLOCK
  5
9D
330
9C
100
AcDbEntity
  8
0
100
AcDbBlockBegin
  2
*D5
 70
    1
 10
0
 20
0
  3
*D5
  1

  0
LINE
  5
126
100
AcDbEntity
  8
Masze
  6
ByBlock
 62
    0
370
   -2
100
AcDbLine
 10
0
 20
87.5
 11
80
 21
87.5
  0
SOLID
  5
127
100
AcDbEntity
  8
Masze
  6
ByBlock
 62
    0
370
   -2
100
AcDbTrace
 10
0
 20
87.5
 30
0
 11
10
 21
89.16513863109137
 31
0
 12
10
 22
85.83486136890863
 32
0
 13
10
 23
85.83486136890863
 33
0
  0
SOLID
  5
128
100
AcDbEntity
  8
Masze
  6
ByBlock
 62
    0
370
   -2
100
AcDbTrace
 10
80
 20
87.5
 30
0
 11
70
 21
85.83486136890863
 31
0
 12
70
 22
89.16513863109137
 32
0
 13
70
 23
89.16513863109137
 33
0
  0
MTEXT
  5
129
100
AcDbEntity
  8
Masze
  6
CONTINUOUS
 62
    0
370
   -2
100
AcDbMText
 10
40
 20
95.625
 30
0
 40
10
 41
23.33333333333334
 71
    5
 72
    1
  1
80.0
  7
standard
210
0
220
0
230
1
 50
0
 73
    2
 44
1
  0
LINE
  5
12A
100
AcDbEntity
  8
Masze
  6
ByBlock
 62
    0
370
   -2
100
AcDbLine
 10
1.913510623667739e-16
 20
3.125
 11
3.827021247335479e-16
 21
93.75
  0
LINE
  5
12B
100
AcDbEntity
  8
Masze
  6
ByBlock
 62
    0
370
   -2
100
AcDbLine
 10
80
 20
40.625
 11
80
 21
93.75
  0
ENDBLK
  5
9E
330
9C
100
AcDbEntity
  8
0
100
AcDbBlockEnd
  0
BLOCK
  5
A0
330
9F
100
AcDbEntity
  8
0
100
AcDbBlockBegin
  2
*D18
 70
    1
 10
0
 20
0
  3
*D18
  1

  0
SOLID
  5
12C
100
AcDbEntity
  8
Masze
  6
ByBlock
 62
    0
370
   -2
100
AcDbTrace
 10
901.3033008588995
 20
1115.803300858899
 30
0
 11
907.1969378531054
 21
1124.051799488424
 31
0
 12
909.5517994884259
 22
1121.696937853103
 32
0
 13
909.5517994884259
 23
1121.696937853103
 33
0
  0
LINE
  5
12D
100
AcDbEntity
  8
Masze
  6
ByBlock
 62
    0
370
   -2
100
AcDbLine
 10
896
 20
1110.5
 11
926.4448753010905
 21
1140.944875301085
  0
MTEXT
  5
12E
100
AcDbEntity
  8
Masze
  6
CONTINUOUS
 62
    0
370
   -2
100
AcDbMText
 10
908.1288454828548
 20
1134.119330677133
 30
0
 40
10
 41
15.55555555555618
 71
    5
 72
    1
  1
7.5
  7
standard
210
0
220
0
230
1
 50
44.99999999999509
 73
    2
 44
1
  0
ENDBLK
  5
A1
330
9F
100
AcDbEntity
  8
0
100
AcDbBlockEnd
  0
ENDSEC
  0
SECTION
  2
ENTITIES
  0
CIRCLE
  5
12F
100
AcDbEntity
  8
0
  6
ByLayer
 62
  256
370
   -1
100
AcDbCircle
 10
80
 20
37.5
 40
7.5
  0
CIRCLE
  5
130
100
AcDbEntity
  8
0
  6
ByLayer
 62
  256
370
   -1
100
AcDbCircle
 10
896
 20
36.5
 40
7.5
  0
CIRCLE
  5
131
100
AcDbEntity
  8
0
  6
ByLayer
 62
  256
370
   -1
100
AcDbCircle
 10
896
 20
1110.5
 40
7.5
  0
CIRCLE
  5
132
100
AcDbEntity
  8
0
  6
ByLayer
 62
  256
370
   -1
100
AcDbCircle
 10
37.5
 20
575.5
 40
7.5
  0
CIRCLE
  5
133
100
AcDbEntity
  8
0
  6
ByLayer
 62
  256
370
   -1
100
AcDbCircle
 10
939.5
 20
572.5
 40
7.5
  0
CIRCLE
  5
134
100
AcDbEntity
  8
0
  6
ByLayer
 62
  256
370
   -1
100
AcDbCircle
 10
917
 20
858
 40
15
  0
LINE
  5
135
100
AcDbEntity
  8
Mittellinien
  6
ByLayer
 62
  256
370
   -1
100
AcDbLine
 10
60
 20
37.5
 11
100
 21
37.5
  0
LINE
  5
136
100
AcDbEntity
  8
Mittellinien
  6
ByLayer
 62
  256
370
   -1
100
AcDbLine
 10
80
 20
17.5
 11
80
 21
57.5
  0
LINE
  5
137
100
AcDbEntity
  8
Mittellinien
  6
ByLayer
 62
  256
370
   -1
100
AcDbLine
 10
876
 20
36.5
 11
916
 21
36.5
  0
LINE
  5
138
100
AcDbEntity
  8
Mittellinien
  6
ByLayer
 62
  256
370
   -1
100
AcDbLine
 10
896
 20
16.5
 11
896
 21
56.5
  0
LINE
  5
139
100
AcDbEntity
  8
Mittellinien
  6
ByLayer
 62
  256
370
   -1
100
AcDbLine
 10
17.5
 20
575.5
 11
57.5
 21
575.5
  0
LINE
  5
13A
100
AcDbEntity
  8
Mittellinien
  6
ByLayer
 62
  256
370
   -1
100
AcDbLine
 10
37.5
 20
555.5
 11
37.5
 21
595.5
  0
LINE
  5
13B
100
AcDbEntity
  8
Mittellinien
  6
ByLayer
 62
  256
370
   -1
100
AcDbLine
 10
61
 20
1112.5
 11
101
 21
1112.5
  0
LINE
  5
13C
100
AcDbEntity
  8
Mittellinien
  6
ByLayer
 62
  256
370
   -1
100
AcDbLine
 10
81
 20
1092.5
 11
81
 21
1132.5
  0
CIRCLE
  5
13D
100
AcDbEntity
  8
0
  6
ByLayer
 62
  256
370
   -1
100
AcDbCircle
 10
81
 20
1112.5
 40
7.5
  0
LINE
  5
13E
100
AcDbEntity
  8
Mittellinien
  6
ByLayer
 62
  256
370
   -1
100
AcDbLine
 10
876
 20
1110.5
 11
916
 21
1110.5
  0
LINE
  5
13F
100
AcDbEntity
  8
Mittellinien
  6
ByLayer
 62
  256
370
   -1
100
AcDbLine
 10
896
 20
1090.5
 11
896
 21
1130.5
  0
LINE
  5
140
100
AcDbEntity
  8
Mittellinien
  6
ByLayer
 62
  256
370
   -1
100
AcDbLine
 10
919.5
 20
572.5
 11
959.5
 21
572.5
  0
LINE
  5
141
100
AcDbEntity
  8
Mittellinien
  6
ByLayer
 62
  256
370
   -1
100
AcDbLine
 10
939.5
 20
552.5
 11
939.5
 21
592.5
  0
LINE
  5
142
100
AcDbEntity
  8
Mittellinien
  6
ByLayer
 62
  256
370
   -1
100
AcDbLine
 10
877
 20
858
 11
957
 21
858
  0
LINE
  5
143
100
AcDbEntity
  8
Mittellinien
  6
ByLayer
 62
  256
370
   -1
100
AcDbLine
 10
917
 20
898
 11
917
 21
718
  0
LINE
  5
144
100
AcDbEntity
  8
Mittellinien
  6
ByLayer
 62
  256
370
   -1
100
AcDbLine
 10
877
 20
770.5
 11
957
 21
770.5
  0
LINE
  5
145
100
AcDbEntity
  8
Mittellinien
  6
ByLayer
 62
  256
370
   -1
100
AcDbLine
 10
877
 20
808
 11
957
 21
808
  0
ARC
  5
146
100
AcDbEntity
  8
0
  6
ByLayer
 62
  256
370
   -1
100
AcDbCircle
 10
917
 20
808
 40
12.5
100
AcDbArc
 50
0
 51
180
  0
ARC
  5
147
100
AcDbEntity
  8
0
  6
ByLayer
 62
  256
370
   -1
100
AcDbCircle
 10
917
 20
770.5
 40
12.5
100
AcDbArc
 50
180
 51
360
  0
LINE
  5
148
100
AcDbEntity
  8
0
  6
ByLayer
 62
  256
370
   -1
100
AcDbLine
 10
904.5
 20
808
 11
904.5
 21
770.5
  0
LINE
  5
149
100
AcDbEntity
  8
0
  6
ByLayer
 62
  256
370
   -1
100
AcDbLine
 10
929.5
 20
808
 11
929.5
 21
770.5
  0
DIMENSION
  5
14A
100
AcDbEntity
  8
Masze
  6
ByLayer
 62
  256
370
   -1
100
AcDbDimension
  2
*D1
 10
37.5
 20
625.5
 30
0
 11
18.75
 21
633.625
 31
0
 70
   32
 71
    5
  3
Standard
 53
0
210
0
220
0
230
1
100
AcDbAlignedDimension
 13
0
 23
0
 33
0
 14
37.5
 24
575.5
 34
0
100
AcDbRotatedDimension
  0
DIMENSION
  5
14B
100
AcDbEntity
  8
Masze
  6
ByLayer
 62
  256
370
   -1
100
AcDbDimension
  2
*D2
 10
81
 20
1062.5
 30
0
 11
40.5
 21
1070.625
 31
0
 70
   32
 71
    5
  3
Standard
 53
0
210
0
220
0
230
1
100
AcDbAlignedDimension
 13
0
 23
0
 33
0
 14
81
 24
1112.5
 34
0
100
AcDbRotatedDimension
  0
DIMENSION
  5
14C
100
AcDbEntity
  8
Masze
  6
ByLayer
 62
  256
370
   -1
100
AcDbDimension
  2
*D3
 10
896
 20
1010.5
 30
0
 11
448
 21
1018.625
 31
0
 70
   32
 71
    5
  3
Standard
 53
0
210
0
220
0
230
1
100
AcDbAlignedDimension
 13
0
 23
0
 33
0
 14
896
 24
1110.5
 34
0
100
AcDbRotatedDimension
  0
DIMENSION
  5
14D
100
AcDbEntity
  8
Masze
  6
ByLayer
 62
  256
370
   -1
100
AcDbDimension
  2
*D4
 10
939.5
 20
522.5
 30
0
 11
469.75
 21
530.625
 31
0
 70
   32
 71
    5
  3
Standard
 53
0
210
0
220
0
230
1
100
AcDbAlignedDimension
 13
0
 23
0
 33
0
 14
939.5
 24
572.5
 34
0
100
AcDbRotatedDimension
  0
DIMENSION
  5
14E
100
AcDbEntity
  8
Masze
  6
ByLayer
 62
  256
370
   -1
100
AcDbDimension
  2
*D5
 10
80
 20
87.5
 30
0
 11
40
 21
95.625
 31
0
 70
   32
 71
    5
  3
Standard
 53
0
210
0
220
0
230
1
100
AcDbAlignedDimension
 13
0
 23
0
 33
0
 14
80
 24
37.5
 34
0
100
AcDbRotatedDimension
  0
DIMENSION
  5
14F
100
AcDbEntity
  8
Masze
  6
ByLayer
 62
  256
370
   -1
100
AcDbDimension
  2
*D6
 10
896
 20
136.5
 30
0
 11
448
 21
144.625
 31
0
 70
   32
 71
    5
  3
Standard
 53
0
210
0
220
0
230
1
100
AcDbAlignedDimension
 13
0
 23
0
 33
0
 14
896
 24
36.5
 34
0
100
AcDbRotatedDimension
  0
LWPOLYLINE
  5
150
100
AcDbEntity
  8
Masze
  6
ByLayer
 62
  256
370
   -1
100
AcDbPolyline
 90
    4
 70
    1
 43
0
 10
0
 20
0
 10
977
 20
0
 10
977
 20
1424
 10
0
 20
1424
  0
DIMENSION
  5
151
100
AcDbEntity
  8
Masze
  6
ByLayer
 62
  256
370
   -1
100
AcDbDimension
  2
*D7
 10
917
 20
720.5
 30
0
 11
458.5
 21
728.625
 31
0
 70
   32
 71
    5
  3
Standard
 53
0
210
0
220
0
230
1
100
AcDbAlignedDimension
 13
0
 23
0
 33
0
 14
917
 24
858
 34
0
100
AcDbRotatedDimension
  0
DIMENSION
  5
152
100
AcDbEntity
  8
Masze
  6
ByLayer
 62
  256
370
   -1
100
AcDbDimension
  2
*D8
 10
130
 20
37.5
 30
0
 11
121.875
 21
18.75
 31
0
 70
   32
 71
    5
  3
Standard
 53
0
210
0
220
0
230
1
100
AcDbAlignedDimension
 13
0
 23
0
 33
0
 14
80
 24
37.5
 34
0
 50
90
100
AcDbRotatedDimension
  0
DIMENSION
  5
153
100
AcDbEntity
  8
Masze
  6
ByLayer
 62
  256
370
   -1
100
AcDbDimension
  2
*D9
 10
845
 20
36.5
 30
0
 11
836.875
 21
18.25
 31
0
 70
   32
 71
    5
  3
Standard
 53
0
210
0
220
0
230
1
100
AcDbAlignedDimension
 13
0
 23
0
 33
0
 14
896
 24
36.5
 34
0
 50
90
100
AcDbRotatedDimension
  0
DIMENSION
  5
154
100
AcDbEntity
  8
Masze
  6
ByLayer
 62
  256
370
   -1
100
AcDbDimension
  2
*D10
 10
180
 20
575.5
 30
0
 11
171.875
 21
287.75
 31
0
 70
   32
 71
    5
  3
Standard
 53
0
210
0
220
0
230
1
100
AcDbAlignedDimension
 13
0
 23
0
 33
0
 14
37.5
 24
575.5
 34
0
 50
90
100
AcDbRotatedDimension
  0
DIMENSION
  5
155
100
AcDbEntity
  8
Masze
  6
ByLayer
 62
  256
370
   -1
100
AcDbDimension
  2
*D11
 10
795.5
 20
572.5
 30
0
 11
787.375
 21
286.25
 31
0
 70
   32
 71
    5
  3
Standard
 53
0
210
0
220
0
230
1
100
AcDbAlignedDimension
 13
0
 23
0
 33
0
 14
939.5
 24
572.5
 34
0
 50
90
100
AcDbRotatedDimension
  0
DIMENSION
  5
156
100
AcDbEntity
  8
Masze
  6
ByLayer
 62
  256
370
   -1
100
AcDbDimension
  2
*D12
 10
230
 20
1112.5
 30
0
 11
221.875
 21
556.25
 31
0
 70
   32
 71
    5
  3
Standard
 53
0
210
0
220
0
230
1
100
AcDbAlignedDimension
 13
0
 23
0
 33
0
 14
81
 24
1112.5
 34
0
 50
90
100
AcDbRotatedDimension
  0
DIMENSION
  5
157
100
AcDbEntity
  8
Masze
  6
ByLayer
 62
  256
370
   -1
100
AcDbDimension
  2
*D13
 10
745.5
 20
770.5
 30
0
 11
737.375
 21
385.25
 31
0
 70
   32
 71
    5
  3
Standard
 53
0
210
0
220
0
230
1
100
AcDbAlignedDimension
 13
0
 23
0
 33
0
 14
917
 24
770.5
 34
0
 50
90
100
AcDbRotatedDimension
  0
DIMENSION
  5
158
100
AcDbEntity
  8
Masze
  6
ByLayer
 62
  256
370
   -1
100
AcDbDimension
  2
*D14
 10
695
 20
808
 30
0
 11
686.875
 21
404
 31
0
 70
   32
 71
    5
  3
Standard
 53
0
210
0
220
0
230
1
100
AcDbAlignedDimension
 13
0
 23
0
 33
0
 14
917
 24
808
 34
0
 50
90
100
AcDbRotatedDimension
  0
DIMENSION
  5
159
100
AcDbEntity
  8
Masze
  6
ByLayer
 62
  256
370
   -1
100
AcDbDimension
  2
*D15
 10
745.5
 20
808
 30
0
 11
737.375
 21
789.25
 31
0
 70
   32
 71
    5
  3
Standard
 53
0
210
0
220
0
230
1
100
AcDbAlignedDimension
 13
917
 23
770.5
 33
0
 14
917
 24
808
 34
0
 50
90
100
AcDbRotatedDimension
  0
DIMENSION
  5
15A
100
AcDbEntity
  8
Masze
  6
ByLayer
 62
  256
370
   -1
100
AcDbDimension
  2
*D16
 10
645.5
 20
858
 30
0
 11
637.375
 21
429
 31
0
 70
   32
 71
    5
  3
Standard
 53
0
210
0
220
0
230
1
100
AcDbAlignedDimension
 13
0
 23
0
 33
0
 14
917
 24
858
 34
0
 50
90
100
AcDbRotatedDimension
  0
DIMENSION
  5
15B
100
AcDbEntity
  8
Masze
  6
ByLayer
 62
  256
370
   -1
100
AcDbDimension
  2
*D17
 10
595.5
 20
1110.5
 30
0
 11
587.375
 21
555.25
 31
0
 70
   32
 71
    5
  3
Standard
 53
0
210
0
220
0
230
1
100
AcDbAlignedDimension
 13
0
 23
0
 33
0
 14
896
 24
1110.5
 34
0
 50
90
100
AcDbRotatedDimension
  0
DIMENSION
  5
15C
100
AcDbEntity
  8
Masze
  6
ByLayer
 62
  256
370
   -1
100
AcDbDimension
  2
*D18
 10
896
 20
1110.5
 30
0
 11
908.1288454828548
 21
1134.119330677133
 31
0
 70
   36
 71
    5
  3
Standard
 53
0
210
0
220
0
230
1
100
AcDbRadialDimension
 15
901.3033008588995
 25
1115.803300858899
 35
0
 40
0
  0
DIMENSION
  5
15D
100
AcDbEntity
  8
Masze
  6
ByLayer
 62
  256
370
   -1
100
AcDbDimension
  2
*D19
 10
81
 20
1112.5
 30
0
 11
93.12884548285483
 21
1136.119330677133
 31
0
 70
   36
 71
    5
  3
Standard
 53
0
210
0
220
0
230
1
100
AcDbRadialDimension
 15
86.30330085889955
 25
1117.803300858899
 35
0
 40
0
  0
DIMENSION
  5
15E
100
AcDbEntity
  8
Masze
  6
ByLayer
 62
  256
370
   -1
100
AcDbDimension
  2
*D20
 10
917
 20
858
 30
0
 11
936.3963318450479
 21
888.8868170393292
 31
0
 70
   36
 71
    5
  3
Standard
 53
0
210
0
220
0
230
1
100
AcDbRadialDimension
 15
927.6066017177982
 25
868.6066017177982
 35
0
 40
0
  0
DIMENSION
  5
15F
100
AcDbEntity
  8
Masze
  6
ByLayer
 62
  256
370
   -1
100
AcDbDimension
  2
*D21
 10
37.5
 20
575.5
 30
0
 11
49.62884548285275
 21
599.1193306771341
 31
0
 70
   36
 71
    5
  3
Standard
 53
0
210
0
220
0
230
1
100
AcDbRadialDimension
 15
42.80330085889908
 25
580.8033008588991
 35
0
 40
0
  0
DIMENSION
  5
160
100
AcDbEntity
  8
Masze
  6
ByLayer
 62
  256
370
   -1
100
AcDbDimension
  2
*D22
 10
80
 20
37.5
 30
0
 11
92.12884548285297
 21
61.11933067713413
 31
0
 70
   36
 71
    5
  3
Standard
 53
0
210
0
220
0
230
1
100
AcDbRadialDimension
 15
85.30330085889915
 25
42.80330085889908
 35
0
 40
0
  0
DIMENSION
  5
161
100
AcDbEntity
  8
Masze
  6
ByLayer
 62
  256
370
   -1
100
AcDbDimension
  2
*D23
 10
896
 20
36.5
 30
0
 11
908.1288454828529
 21
60.11933067713417
 31
0
 70
   36
 71
    5
  3
Standard
 53
0
210
0
220
0
230
1
100
AcDbRadialDimension
 15
901.3033008588991
 25
41.80330085889908
 35
0
 40
0
  0
DIMENSION
  5
162
100
AcDbEntity
  8
Masze
  6
ByLayer
 62
  256
370
   -1
100
AcDbDimension
  2
*D24
 10
939.5
 20
572.5
 30
0
 11
951.6288454828529
 21
596.1193306771341
 31
0
 70
   36
 71
    5
  3
Standard
 53
0
210
0
220
0
230
1
100
AcDbRadialDimension
 15
944.8033008588991
 25
577.8033008588991
 35
0
 40
0
  0
DIMENSION
  5
163
100
AcDbEntity
  8
Masze
  6
ByLayer
 62
  256
370
   -1
100
AcDbDimension
  2
*D25
 10
929.5
 20
670.5
 30
0
 11
917
 21
678.625
 31
0
 70
   32
 71
    5
  3
Standard
 53
0
210
0
220
0
230
1
100
AcDbAlignedDimension
 13
904.5
 23
770.5
 33
0
 14
929.5
 24
770.5
 34
0
100
AcDbRotatedDimension
  0
DIMENSION
  5
164
100
AcDbEntity
  8
Masze
  6
ByLayer
 62
  256
370
   -1
100
AcDbDimension
  2
*D26
 10
-50
 20
1424
 30
0
 11
-58.12500000000005
 21
712
 31
0
 70
   32
 71
    5
  3
Standard
 53
0
210
0
220
0
230
1
100
AcDbAlignedDimension
 13
0
 23
0
 33
0
 14
0
 24
1424
 34
0
 50
90
100
AcDbRotatedDimension
  0
DIMENSION
  5
165
100
AcDbEntity
  8
Masze
  6
ByLayer
 62
  256
370
   -1
100
AcDbDimension
  2
*D27
 10
977
 20
-50
 30
0
 11
488.5
 21
-41.875
 31
0
 70
   32
 71
    5
  3
Standard
 53
0
210
0
220
0
230
1
100
AcDbAlignedDimension
 13
0
 23
0
 33
0
 14
977
 24
0
 34
0
100
AcDbRotatedDimension
  0
MTEXT
  5
166
100
AcDbEntity
  8
Titel
  6
ByLayer
 62
  256
370
   -1
100
AcDbMText
 10
488.5
 20
1500
 30
0
 40
15
 41
359.1666634866382
 71
    5
 72
    1
  1
Gartentor - 12mm VSG 977 x 1424
  7

210
0
220
0
230
1
 50
0
 73
    2
 44
1
  0
ENDSEC
  0
SECTION
  2
OBJECTS
  0
DICTIONARY
  5
C
330
0
100
AcDbDictionary
281
    1
  3
ACAD_GROUP
350
D
  0
DICTIONARY
  5
D
330
C
100
AcDbDictionary
281
    1
  0
ENDSEC
  0
EOF
